<svg width="237" height="49" viewBox="0 0 237 49" fill="none" xmlns="http://www.w3.org/2000/svg">
<path d="M91.5271 14.825C89.0271 14.825 87.0271 15.625 85.6271 17.225C84.2271 18.925 83.5271 21.225 83.5271 24.325C83.5271 27.425 84.2271 29.825 85.6271 31.425C87.0271 33.025 89.0271 33.825 91.5271 33.825C94.0271 33.825 96.0271 33.025 97.4271 31.425C98.8271 29.725 99.5271 27.425 99.5271 24.325C99.5271 21.225 98.8271 18.825 97.4271 17.225C96.0271 15.625 94.0271 14.825 91.5271 14.825ZM95.3271 27.025C95.3271 27.525 95.2271 28.025 95.0271 28.425C94.8271 28.825 94.5271 29.125 94.2271 29.425C93.8271 29.725 93.5271 29.925 93.0271 30.025C92.5271 30.225 92.0271 30.225 91.5271 30.225C91.0271 30.225 90.5271 30.225 90.0271 30.025C89.5271 30.025 89.1271 29.725 88.8271 29.425C88.5271 29.125 88.2271 28.825 88.0271 28.425C87.8271 28.025 87.7271 27.525 87.7271 27.025V21.625C87.7271 21.025 87.8271 20.625 88.0271 20.225C88.2271 19.825 88.5271 19.525 88.8271 19.225C89.2271 18.925 89.6271 18.725 90.0271 18.625C90.5271 18.425 90.9271 18.425 91.5271 18.425C92.1271 18.425 92.5271 18.425 93.0271 18.625C93.5271 18.625 93.9271 18.925 94.2271 19.225C94.5271 19.525 94.8271 19.825 95.0271 20.225C95.2271 20.625 95.3271 21.125 95.3271 21.625V27.025Z" fill="url(#paint0_linear_1864_134)"/>
<path d="M116.527 27.325L111.927 14.825H106.427V33.825H110.327V21.325L114.927 33.825H120.427V14.825H116.527V27.325Z" fill="url(#paint1_linear_1864_134)"/>
<path d="M140.527 18.425V14.825H128.127V33.825H140.527V30.325H132.027V25.925H139.327V22.425H132.027V18.425H140.527Z" fill="url(#paint2_linear_1864_134)"/>
<path fill-rule="evenodd" clip-rule="evenodd" d="M168.527 14.825L162.427 33.825H166.727L167.827 29.925H173.127L174.227 33.825H178.527L172.527 14.825H168.527ZM168.827 26.225L170.427 20.525L172.027 26.225H168.827Z" fill="#1E1E1E"/>
<path fill-rule="evenodd" clip-rule="evenodd" d="M150.927 14.825H146.927V33.825H158.127V30.125H150.927V14.825Z" fill="#1E1E1E"/>
<path fill-rule="evenodd" clip-rule="evenodd" d="M190.427 22.025L186.927 14.825H182.427L188.427 26.425V33.825H192.327V26.425L198.327 14.825H193.827L190.427 22.025Z" fill="#1E1E1E"/>
<path fill-rule="evenodd" clip-rule="evenodd" d="M203.927 33.825H216.427V30.125H207.927V26.025H215.327V22.325H207.927V18.525H216.427V14.825H203.927V33.825Z" fill="#1E1E1E"/>
<path fill-rule="evenodd" clip-rule="evenodd" d="M232.927 26.425C233.927 26.025 234.727 25.425 235.427 24.625C236.127 23.625 236.427 22.425 236.427 20.925C236.427 19.425 235.927 17.425 235.027 16.425C234.027 15.425 232.627 14.925 230.727 14.925H223.427V33.925H227.427V26.925H228.927L232.527 33.925H236.927L232.927 26.425ZM232.727 21.725C232.727 22.925 232.227 23.525 231.227 23.525H227.127V18.125H231.227C231.827 18.125 232.227 18.225 232.427 18.525C232.627 18.825 232.727 19.225 232.727 19.825V21.725Z" fill="#1E1E1E"/>
<path d="M7.92709 35.825L0.627076 31.725C-0.272924 31.225 -0.172918 30.025 0.727082 29.625L32.1271 15.525C32.5271 15.325 32.9271 15.425 33.2271 15.525L62.8271 32.225C63.7271 32.725 63.6271 33.925 62.7271 34.325L53.5271 38.425L31.2271 25.825C30.9271 25.625 30.4271 25.625 30.1271 25.825L20.2271 30.225C19.7271 30.425 19.7271 31.025 20.2271 31.325L40.0271 42.425C40.9271 42.925 40.8271 44.125 39.9271 44.525L30.7271 48.625L7.92709 35.725V35.825Z" fill="url(#paint3_linear_1864_134)"/>
<path d="M22.727 10.425L14.427 14.125C13.527 14.525 13.427 15.725 14.327 16.225L29.927 25.025C30.527 25.325 30.827 25.925 30.827 26.625V48.725L41.127 44.125C41.827 43.825 42.227 43.225 42.227 42.525V21.525C42.227 20.925 41.827 20.325 41.327 19.925L24.527 10.425C24.027 10.125 23.427 10.125 22.827 10.425H22.727Z" fill="url(#paint4_linear_1864_134)"/>
<path d="M45.6272 0.225L37.3272 3.925C36.4272 4.325 36.3272 5.525 37.2272 6.025L53.1272 15.025C53.5272 15.225 53.7272 15.625 53.7272 16.025V38.425L64.3272 33.725C64.7272 33.525 65.0272 33.125 65.0272 32.625V11.325C65.0272 10.725 64.6272 10.125 64.1272 9.725L47.3272 0.225C46.8272 -0.075 46.2272 -0.075 45.6272 0.225Z" fill="url(#paint5_linear_1864_134)"/>
<defs>
<linearGradient id="paint0_linear_1864_134" x1="91.5271" y1="14.825" x2="91.5271" y2="33.325" gradientUnits="userSpaceOnUse">
<stop stop-color="#FF4801"/>
<stop offset="1" stop-color="#FF8556"/>
</linearGradient>
<linearGradient id="paint1_linear_1864_134" x1="113.427" y1="14.825" x2="113.427" y2="33.325" gradientUnits="userSpaceOnUse">
<stop stop-color="#FF4801"/>
<stop offset="1" stop-color="#FF8556"/>
</linearGradient>
<linearGradient id="paint2_linear_1864_134" x1="134.327" y1="14.825" x2="134.327" y2="33.325" gradientUnits="userSpaceOnUse">
<stop stop-color="#FF4801"/>
<stop offset="1" stop-color="#FF8556"/>
</linearGradient>
<linearGradient id="paint3_linear_1864_134" x1="0.0270791" y1="32.025" x2="63.5271" y2="32.025" gradientUnits="userSpaceOnUse">
<stop stop-color="#1E1E1E" stop-opacity="0.3"/>
<stop offset="1" stop-color="#1E1E1E" stop-opacity="0.7"/>
</linearGradient>
<linearGradient id="paint4_linear_1864_134" x1="28.027" y1="10.225" x2="28.027" y2="46.825" gradientUnits="userSpaceOnUse">
<stop stop-color="#FF4801"/>
<stop offset="1" stop-color="#FF8556"/>
</linearGradient>
<linearGradient id="paint5_linear_1864_134" x1="50.8272" y1="0.325" x2="50.8272" y2="37.525" gradientUnits="userSpaceOnUse">
<stop stop-color="#FF4801"/>
<stop offset="1" stop-color="#FF8556"/>
</linearGradient>
</defs>
</svg>
