<svg width="66" height="49" viewBox="0 0 66 49" fill="none" xmlns="http://www.w3.org/2000/svg">
<path d="M7.92708 35.825L0.627076 31.725C-0.272924 31.225 -0.172918 30.025 0.727082 29.625L32.1271 15.525C32.5271 15.325 32.9271 15.425 33.2271 15.525L62.8271 32.225C63.7271 32.725 63.6271 33.925 62.7271 34.325L53.5271 38.425L31.2271 25.825C30.9271 25.625 30.4271 25.625 30.1271 25.825L20.2271 30.225C19.7271 30.425 19.7271 31.025 20.2271 31.325L40.0271 42.425C40.9271 42.925 40.8271 44.125 39.9271 44.525L30.7271 48.625L7.92708 35.725V35.825Z" fill="url(#paint0_linear_1864_217)"/>
<path d="M22.727 10.425L14.427 14.125C13.527 14.525 13.427 15.725 14.327 16.225L29.927 25.025C30.527 25.325 30.827 25.925 30.827 26.625V48.725L41.127 44.125C41.827 43.825 42.227 43.225 42.227 42.525V21.525C42.227 20.925 41.827 20.325 41.327 19.925L24.527 10.425C24.027 10.125 23.427 10.125 22.827 10.425H22.727Z" fill="url(#paint1_linear_1864_217)"/>
<path d="M45.627 0.225L37.3271 3.925C36.4271 4.325 36.3271 5.52499 37.2271 6.02499L53.127 15.025C53.527 15.225 53.7271 15.625 53.7271 16.025V38.425L64.327 33.725C64.727 33.525 65.0271 33.125 65.0271 32.625V11.325C65.0271 10.725 64.627 10.125 64.127 9.725L47.3271 0.225C46.8271 -0.075 46.227 -0.075 45.627 0.225Z" fill="url(#paint2_linear_1864_217)"/>
<defs>
<linearGradient id="paint0_linear_1864_217" x1="0.0270791" y1="31.925" x2="63.4271" y2="31.925" gradientUnits="userSpaceOnUse">
<stop stop-color="#4C4C4C" stop-opacity="0.3"/>
<stop offset="1" stop-color="#4C4C4C" stop-opacity="0.7"/>
</linearGradient>
<linearGradient id="paint1_linear_1864_217" x1="28.027" y1="10.225" x2="28.027" y2="46.725" gradientUnits="userSpaceOnUse">
<stop stop-color="white"/>
<stop offset="1" stop-color="#878787"/>
</linearGradient>
<linearGradient id="paint2_linear_1864_217" x1="50.8271" y1="0.325" x2="50.8271" y2="37.525" gradientUnits="userSpaceOnUse">
<stop stop-color="white"/>
<stop offset="1" stop-color="#878787"/>
</linearGradient>
</defs>
</svg>
