<svg width="154" height="77" viewBox="0 0 154 77" fill="none" xmlns="http://www.w3.org/2000/svg">
<path d="M8 57.625C5.5 57.625 3.49998 58.425 2.09998 60.025C0.699976 61.725 0 64.025 0 67.125C0 70.225 0.699976 72.625 2.09998 74.225C3.49998 75.825 5.5 76.625 8 76.625C10.5 76.625 12.5 75.825 13.9 74.225C15.3 72.525 16 70.225 16 67.125C16 64.025 15.3 61.625 13.9 60.025C12.5 58.425 10.5 57.625 8 57.625ZM11.8 69.825C11.8 70.325 11.7 70.825 11.5 71.225C11.3 71.625 11 71.925 10.7 72.225C10.3 72.525 10 72.725 9.5 72.825C9 73.025 8.5 73.025 8 73.025C7.5 73.025 7 73.025 6.5 72.825C6 72.825 5.59999 72.525 5.29999 72.225C4.99999 71.925 4.7 71.625 4.5 71.225C4.3 70.825 4.19995 70.325 4.19995 69.825V64.425C4.19995 63.825 4.3 63.425 4.5 63.025C4.7 62.625 4.99999 62.325 5.29999 62.025C5.69999 61.725 6.1 61.525 6.5 61.425C7 61.225 7.4 61.225 8 61.225C8.6 61.225 9 61.225 9.5 61.425C10 61.425 10.4 61.725 10.7 62.025C11 62.325 11.3 62.625 11.5 63.025C11.7 63.425 11.8 63.925 11.8 64.425V69.825Z" fill="white"/>
<path d="M32.9999 70.125L28.3999 57.625H22.8999V76.625H26.7999V64.125L31.3999 76.625H36.8999V57.625H32.9999V70.125Z" fill="white"/>
<path d="M57.0001 61.225V57.625H44.6001V76.625H57.0001V73.125H48.5001V68.725H55.8001V65.225H48.5001V61.225H57.0001Z" fill="white"/>
<g opacity="0.8">
<path fill-rule="evenodd" clip-rule="evenodd" d="M84.9999 57.625L78.8999 76.625H83.1999L84.2999 72.725H89.5999L90.6999 76.625H94.9999L88.9999 57.625H84.9999ZM85.3999 69.025L86.9999 63.325L88.5999 69.025H85.3999Z" fill="white"/>
<path fill-rule="evenodd" clip-rule="evenodd" d="M67.5 57.625H63.5V76.625H74.7V72.925H67.5V57.625Z" fill="white"/>
<path fill-rule="evenodd" clip-rule="evenodd" d="M106.9 64.725L103.5 57.625H99L104.9 69.225V76.625H108.9V69.225L114.9 57.625H110.4L106.9 64.725Z" fill="white"/>
<path fill-rule="evenodd" clip-rule="evenodd" d="M120.5 76.625H133V72.925H124.5V68.725H131.8V65.025H124.5V61.325H133V57.625H120.5V76.625Z" fill="white"/>
<path fill-rule="evenodd" clip-rule="evenodd" d="M149.5 69.125C150.5 68.725 151.3 68.125 152 67.325C152.7 66.325 153 65.125 153 63.625C153 62.125 152.5 60.125 151.6 59.125C150.6 58.125 149.2 57.625 147.3 57.625H140V76.625H144V69.625H145.5L149.1 76.625H153.5L149.5 69.125ZM149.3 64.525C149.3 65.725 148.8 66.325 147.8 66.325H143.7V60.925H147.8C148.4 60.925 148.8 61.025 149 61.325C149.2 61.625 149.3 62.025 149.3 62.625V64.525Z" fill="white"/>
</g>
<path d="M51.5999 35.825L44.2999 31.725C43.3999 31.225 43.4999 30.025 44.3999 29.625L75.7999 15.525C76.1999 15.325 76.5999 15.425 76.8999 15.525L106.5 32.225C107.4 32.725 107.3 33.925 106.4 34.325L97.1999 38.425L74.8999 25.825C74.5999 25.625 74.0999 25.625 73.7999 25.825L63.8999 30.225C63.3999 30.425 63.3999 31.025 63.8999 31.325L83.6999 42.425C84.5999 42.925 84.4999 44.125 83.5999 44.525L74.3999 48.625L51.5999 35.725V35.825Z" fill="url(#paint0_linear_1864_221)"/>
<path d="M66.3999 10.425L58.0999 14.125C57.1999 14.525 57.0999 15.725 57.9999 16.225L73.5999 25.025C74.1999 25.325 74.4999 25.925 74.4999 26.625V48.725L84.7999 44.125C85.4999 43.825 85.8999 43.225 85.8999 42.525V21.525C85.8999 20.925 85.4999 20.325 84.9999 19.925L68.1998 10.425C67.6998 10.125 67.0999 10.125 66.4999 10.425H66.3999Z" fill="url(#paint1_linear_1864_221)"/>
<path d="M89.3 0.225L81 3.925C80.1 4.325 80 5.525 80.9 6.025L96.8 15.025C97.2 15.225 97.4 15.625 97.4 16.025V38.425L108 33.725C108.4 33.525 108.7 33.125 108.7 32.625V11.325C108.7 10.725 108.3 10.125 107.8 9.725L91 0.225C90.5 -0.075 89.9 -0.075 89.3 0.225Z" fill="url(#paint2_linear_1864_221)"/>
<defs>
<linearGradient id="paint0_linear_1864_221" x1="43.5999" y1="32.025" x2="107.1" y2="32.025" gradientUnits="userSpaceOnUse">
<stop stop-color="#4C4C4C" stop-opacity="0.3"/>
<stop offset="1" stop-color="#4C4C4C" stop-opacity="0.7"/>
</linearGradient>
<linearGradient id="paint1_linear_1864_221" x1="71.5999" y1="10.225" x2="71.5999" y2="46.825" gradientUnits="userSpaceOnUse">
<stop stop-color="white"/>
<stop offset="1" stop-color="#878787"/>
</linearGradient>
<linearGradient id="paint2_linear_1864_221" x1="94.5" y1="0.325" x2="94.5" y2="37.525" gradientUnits="userSpaceOnUse">
<stop stop-color="white"/>
<stop offset="1" stop-color="#878787"/>
</linearGradient>
</defs>
</svg>
